<?xml version="1.0" encoding="UTF-8"?><svg enable-background="new 0 0 2484 2484" version="1.1" viewBox="0 0 2484 2484" xml:space="preserve" xmlns="http://www.w3.org/2000/svg"><path d="m1470 2486h-1468v-2484h2484v2484h-1016m-1419.7-921.4c0.32723 0.94092 0.71668 1.8651 0.97286 2.825 25.949 97.231 63.685 189.69 112.55 277.62 70.268 126.44 160.03 237.18 268.92 332.33 72.741 63.562 151.93 117.8 237.48 162.82 74.751 39.344 152.65 70.671 233.79 93.998 56.701 16.301 114.3 28.274 172.77 36.3 46.605 6.397 93.396 10.124 140.38 11.243 55.689 1.3264 111.23-1.2651 166.62-7.4197 57.996-6.4431 115.24-16.874 171.71-31.457 91.201-23.554 178.55-57.162 262.02-100.87 138.81-72.682 259.51-168.26 362.33-286.42 78.316-89.999 142.23-189.38 191.7-297.9 61.516-134.94 97.354-276.57 107.88-424.48 4.5012-63.226 4.1353-126.5-1.0576-189.74-4.6936-57.159-13.121-113.72-25.604-169.68-24.333-109.09-62.729-213.01-115.47-311.53-71.652-133.85-164.7-250.84-279.11-350.64-106.81-93.173-226.16-166.04-357.99-218.24-116.29-46.043-236.93-73.533-361.6-82.828-65.859-4.9099-131.78-4.5355-197.66 1.06-54.824 4.6562-109.08 12.771-162.8 24.558-93.018 20.409-182.41 51.407-268.2 92.65-57.098 27.448-111.72 59.241-163.95 95.154-96.151 66.111-181.32 144.2-255.47 234.24-73.234 88.918-133.01 186.13-179.06 291.79-34.425 78.975-60.352 160.6-77.619 244.98-9.5545 46.688-17.093 93.71-20.183 141.29-2.3737 36.549-4.864 73.169-5.0021 109.77-0.22512 59.661 4.1829 119.1 12.972 178.2 6.9586 46.788 16.241 93.061 28.672 140.38z" fill="transparent"/><path d="m50.159 1563.8c-12.277-46.515-21.56-92.788-28.518-139.58-8.7893-59.096-13.197-118.54-12.972-178.2 0.13809-36.597 2.6284-73.218 5.0021-109.77 3.0902-47.582 10.628-94.604 20.183-141.29 17.268-84.379 43.195-166 77.619-244.98 46.055-105.66 105.83-202.87 179.06-291.79 74.158-90.039 159.32-168.13 255.47-234.24 52.231-35.913 106.85-67.705 163.95-95.154 85.793-41.243 175.18-72.24 268.2-92.65 53.725-11.788 107.98-19.902 162.8-24.558 65.883-5.5954 131.8-5.9698 197.66-1.06 124.67 9.2942 245.31 36.785 361.6 82.828 131.83 52.196 251.17 125.06 357.99 218.24 114.41 99.799 207.45 216.79 279.11 350.64 52.739 98.52 91.134 202.44 115.47 311.53 12.483 55.962 20.91 112.52 25.604 169.68 5.1929 63.239 5.5588 126.51 1.0576 189.74-10.529 147.91-46.367 289.54-107.88 424.48-49.472 108.52-113.39 207.9-191.7 297.9-102.82 118.16-223.52 213.74-362.33 286.42-83.473 43.707-170.82 77.315-262.02 100.87-56.47 14.584-113.71 25.014-171.71 31.457-55.396 6.1545-110.93 8.7461-166.62 7.4197-46.983-1.1189-93.773-4.8462-140.38-11.243-58.473-8.0259-116.07-19.999-172.77-36.3-81.141-23.326-159.04-54.654-233.79-93.998-85.549-45.027-164.74-99.261-237.48-162.82-108.89-95.146-198.65-205.89-268.92-332.33-48.867-87.934-86.603-180.39-112.55-277.62-0.25618-0.95984-0.64563-1.884-1.1271-3.627m1392.3-640.8c-2.44e-4 -23.326 0.10498-46.653-0.081177-69.977-0.042114-5.2723 1.181-9.4323 4.8436-13.491 51.991-57.611 103.82-115.37 155.71-173.07 56.567-62.896 113.17-125.76 169.72-188.68 1.8378-2.0448 3.2268-4.4928 5.1725-7.244-19.737-2.0262-1007.7-1.1674-1016.3 1.0858 226.56 250.81 452.7 501.16 678.85 751.51 0.70703-0.26453 1.4139-0.52905 2.1208-0.79358v-299.34m-199.78 159.31c-19.013-20.978-38.042-41.94-57.035-62.936-26.809-29.637-53.578-59.31-80.409-88.927-1.785-1.9703-3.9508-3.5956-7.5032-6.7856v19.407c0.001098 300.31-0.003784 600.63 0.034912 900.94 9.76e-4 7.9918-0.13806 16.059 0.83081 23.963 5.1757 42.227 22.672 78.52 53.969 107.56 39.501 36.655 86.755 51.885 139.83 45.355 45.422-5.5883 83.456-26.941 112.26-62.951 23.528-29.417 37.646-62.835 37.672-101.06 0.12671-181.32 0.020264-362.64 0.1947-543.96 0.006592-6.9073-2.2545-11.817-6.7787-16.764-22.458-24.558-44.585-49.419-66.903-74.106-26.805-29.651-53.72-59.203-80.518-88.86-14.958-16.553-29.775-33.234-45.64-50.872m-419.72-237.73c57.652 4.89e-4 115.3 0.020447 172.96-0.018127 9.3126-0.006226 18.625-0.26904 27.937-0.44177 0.24811-0.004638 0.55304-0.2948 0.7182-0.53088 0.18408-0.26306 0.2384-0.61682 0.5033-1.3682-1.0569-1.3241-2.1955-2.9138-3.4963-4.3572-51.501-57.149-103.01-114.29-154.53-171.42-29.439-32.645-58.879-65.289-88.346-97.907-27.685-30.646-55.501-61.175-83.024-91.966-4.631-5.1811-9.4982-7.287-16.442-7.006-12.975 0.52493-26.005 0.57913-38.979 0.041839-16.005-0.66278-31.075 3.0674-45.891 8.3323-85.537 30.395-134.55 116.24-124.67 198.39 4.9232 40.96 20.681 77.027 48.806 107.26 38.141 41 85.443 61.183 141.51 61.021 53.652-0.1543 107.31-0.032715 162.96-0.033142m892-0.062073c39.325-0.001159 78.65 0.11816 117.97-0.031799 58.467-0.22296 107.13-22.605 144.69-67.13 63.188-74.899 58.779-181.95-8.3944-252.29-28.482-29.823-63.486-47.755-104.1-55.487-9.5328-1.8149-15.089 0.14984-21.403 7.2411-52.048 58.458-104.51 116.55-156.84 174.75-55.228 61.427-110.45 122.85-165.66 184.3-1.8923 2.1062-3.5422 4.4302-5.2863 6.6287 1.147 0.93768 1.6157 1.6566 2.0859 1.6577 64.976 0.1532 129.95 0.25409 196.93 0.35693z" fill="#F4F4F4"/><path d="m1442.5 924v298.34c-0.70691 0.26453-1.4138 0.52905-2.1208 0.79358-226.15-250.35-452.3-500.71-678.85-751.51 8.6037-2.2531 996.6-3.112 1016.3-1.0858-1.9457 2.7513-3.3347 5.1992-5.1725 7.244-56.546 62.915-113.15 125.78-169.72 188.68-51.894 57.7-103.72 115.46-155.71 173.07-3.6626 4.0585-4.8857 8.2184-4.8436 13.491 0.18616 23.324 0.080933 46.651 0.081177 70.977z" fill="#F05448"/><path d="m1243.2 1082.8c15.373 17.13 30.19 33.811 45.148 50.365 26.798 29.657 53.713 59.209 80.518 88.86 22.318 24.687 44.444 49.548 66.903 74.106 4.5242 4.9474 6.7853 9.8568 6.7787 16.764-0.17444 181.32-0.067993 362.64-0.1947 543.96-0.026733 38.225-14.144 71.643-37.672 101.06-28.801 36.01-66.836 57.363-112.26 62.951-53.072 6.5297-100.33-8.7004-139.83-45.355-31.296-29.041-48.793-65.334-53.969-107.56-0.96887-7.9041-0.82983-15.971-0.83081-23.963-0.038696-300.31-0.033814-600.63-0.034912-900.94v-19.407c3.5524 3.1899 5.7181 4.8152 7.5032 6.7856 26.831 29.617 53.6 59.29 80.409 88.927 18.992 20.996 38.022 41.959 57.527 63.443z" fill="#4C8DF6"/><path d="m822 844.58c-54.653 6.1e-5 -108.31-0.12152-161.96 0.032776-56.065 0.16126-103.37-20.022-141.51-61.021-28.125-30.233-43.883-66.3-48.806-107.26-9.8746-82.156 39.137-168 124.67-198.39 14.816-5.265 29.886-8.9951 45.891-8.3323 12.974 0.53729 26.004 0.48309 38.979-0.041839 6.9438-0.28092 11.811 1.8249 16.442 7.006 27.522 30.792 55.338 61.32 83.024 91.966 29.468 32.619 58.908 65.262 88.346 97.907 51.52 57.132 103.03 114.27 154.53 171.42 1.3008 1.4435 2.4395 3.0331 3.4963 4.3572-0.26489 0.7514-0.31921 1.1052-0.5033 1.3682-0.16516 0.23608-0.47009 0.52624-0.7182 0.53088-9.312 0.17273-18.624 0.43555-27.937 0.44177-57.652 0.038574-115.3 0.018616-173.96 0.018493z" fill="#58B45A"/><path d="m1714 844.51c-65.976-0.10309-130.95-0.20398-195.93-0.35718-0.47022-0.00116-0.93896-0.72003-2.0859-1.6577 1.744-2.1985 3.3939-4.5225 5.2863-6.6287 55.205-61.447 110.43-122.87 165.66-184.3 52.331-58.205 104.79-116.3 156.84-174.75 6.3137-7.0912 11.87-9.056 21.403-7.2411 40.609 7.7317 75.614 25.664 104.1 55.487 67.173 70.336 71.582 177.39 8.3944 252.29-37.564 44.526-86.223 66.907-144.69 67.13-39.324 0.14996-78.649 0.03064-118.97 0.032044z" fill="#FDC726"/></svg>